<?xml version="1.0" encoding="UTF-8"?>
<svg id="Capa_1" xmlns="http://www.w3.org/2000/svg" xmlns:xlink="http://www.w3.org/1999/xlink" version="1.1" viewBox="0 0 150 215">
  <!-- Generator: Adobe Illustrator 29.2.1, SVG Export Plug-In . SVG Version: 2.1.0 Build 116)  -->
  <defs>
    <style>
      .st0 {
        letter-spacing: .2em;
      }

      .st0, .st1 {
        fill: #898989;
        font-family: Montserrat-Medium, Montserrat;
        font-size: 31.3px;
        font-weight: 500;
      }

      .st0, .st1, .st2 {
        isolation: isolate;
      }

      .st1 {
        letter-spacing: .2em;
      }

      .st3 {
        fill: #fff;
      }

      .st4 {
        fill: #999;
      }
    </style>
  </defs>
  <rect class="st3" x="4.3" y="5.9" width="143.4" height="79.7" rx="28.3" ry="28.3"/>
  <path class="st4" d="M137.7,148c0,34-27.6,61.8-61.6,61.9-34.1,0-61.8-27.6-61.9-61.6,0-34,27.6-61.8,61.6-61.9,34.1,0,61.8,27.6,61.9,61.6Z"/>
  <path class="st3" d="M112.3,131.7c-5.9-2.6-9.2-5.2-10.9-7.4v-3.9c0-1.1-1-2.1-2.1-2.1h0c-1.1,0-2.1,1-2.1,2.1v39.2c-2-1.1-4.4-1.3-6.9-.8-5.3,1.2-8.8,5.9-7.6,10.5,1.1,4.7,6.2,7.4,11.4,6.2,4.1-1,7-3.9,7.7-7.3v-3.1h0c0-.5-.2-.8-.3-1.1v-31.6c2.6,2.8,6.4,4.2,8.1,6.5,3.2,4.6-3,13.5-2,14.3,1.3,1.2,19.4-15.3,4.8-21.6h0Z"/>
  <path class="st3" d="M48.9,129.5l22.6,17.2c.3.3.3.8,0,1l-22.5,17.7c-.4.3-1.1,0-1.1-.5v-34.8c0-.6.6-.9,1-.6Z"/>
  <g class="st2">
    <text class="st0" transform="translate(23.2 41.3)"><tspan x="0" y="0">DALE</tspan></text>
  </g>
  <g class="st2">
    <text class="st1" transform="translate(26.9 72.2)"><tspan x="0" y="0">PLAY</tspan></text>
  </g>
</svg>